<?xml version="1.0" encoding="UTF-8" standalone="no"?><!DOCTYPE svg PUBLIC "-//W3C//DTD SVG 1.1//EN" "http://www.w3.org/Graphics/SVG/1.1/DTD/svg11.dtd"><svg width="100%" height="100%" viewBox="0 0 351 197" version="1.1" xmlns="http://www.w3.org/2000/svg" xmlns:xlink="http://www.w3.org/1999/xlink" xml:space="preserve" xmlns:serif="http://www.serif.com/" style="fill-rule:evenodd;clip-rule:evenodd;stroke-linejoin:round;stroke-miterlimit:2;"><rect id="Artboard1" x="-0" y="0" width="350.88" height="196.56" style="fill:none;"/><g><path d="M176.724,79.659c-6.68,-18.681 -20.746,-41.941 -49.988,-49.158c-29.678,-7.324 -13.725,24.075 -14.676,37.991c-0.636,9.621 -4.979,22.134 9.727,30.001" style="fill:none;stroke:#ff5c00;stroke-width:1.38px;"/><path d="M130.658,101.954c2.8,0.797 5.984,1.495 9.602,2.078c-3.084,0.394 -6.518,0.913 -9.843,1.871" style="fill:none;stroke:#ff5c00;stroke-width:1.38px;"/><path d="M121.787,109.981c-6.444,4.86 -9.872,13.841 -4.181,31.142c7.36,22.379 32.728,11.317 49.158,-2.244" style="fill:none;stroke:#ff5c00;stroke-width:1.38px;"/><path d="M173.042,140.907c8.33,19.503 25.508,40.567 42.242,24.321c9.98,-9.674 13.017,-17.518 12.371,-23.931" style="fill:none;stroke:#ff5c00;stroke-width:1.38px;"/><path d="M216.097,124.489c-1.221,-0.939 -2.442,-1.814 -3.61,-2.632c1.245,0.419 2.448,0.798 3.61,1.14" style="fill:none;stroke:#ff5c00;stroke-width:1.38px;"/><path d="M224.727,124.998c9.856,1.567 15.841,-0.356 19.808,-3.843" style="fill:none;stroke:#ff5c00;stroke-width:1.38px;"/><path d="M253.165,105.494c0.267,-0.677 0.538,-1.338 0.819,-1.977c2.008,-4.434 6.805,-9.796 10.947,-15.211" style="fill:none;stroke:#ff5c00;stroke-width:1.38px;"/><path d="M270.499,79.68c3.265,-6.964 2.078,-13.188 -11.735,-16.596c-1.892,-0.467 -3.759,-0.845 -5.6,-1.14" style="fill:none;stroke:#ff5c00;stroke-width:1.38px;"/><path d="M244.535,61.143c-7.764,-0.196 -15.003,1.045 -21.653,3.212" style="fill:none;stroke:#ff5c00;stroke-width:1.38px;"/><path d="M216.097,66.957c-9.734,4.302 -17.979,10.427 -24.495,16.424" style="fill:none;stroke:#ff5c00;stroke-width:1.38px;"/><path d="M185.647,89.29c-1.676,1.791 -3.174,3.504 -4.484,5.08" style="fill:none;stroke:#ff5c00;stroke-width:1.38px;"/><path d="M181.163,94.37c-0.059,0.071 -0.117,0.141 -0.175,0.211c-0.001,-0.038 -0.003,-0.076 -0.004,-0.113" style="fill:none;stroke:#ff5c00;stroke-width:1.38px;"/><path d="M180.985,94.467c-0.003,-0.098 -0.004,-0.193 -0.003,-0.284" style="fill:none;stroke:#ff5c00;stroke-width:1.38px;"/><path d="M180.981,94.183c0.003,-0.739 0.101,-1.265 0.223,-1.597" style="fill:none;stroke:#ff5c00;stroke-width:1.38px;"/><path d="M181.204,92.587c0.052,-0.142 0.108,-0.248 0.163,-0.32" style="fill:none;stroke:#ff5c00;stroke-width:1.38px;"/><path d="M181.367,92.267c0.135,-0.176 0.262,-0.146 0.301,0.068" style="fill:none;stroke:#ff5c00;stroke-width:1.38px;"/><path d="M181.669,92.335c0.016,0.089 0.017,0.209 -0.002,0.359" style="fill:none;stroke:#ff5c00;stroke-width:1.38px;"/><path d="M181.666,92.694c-0.046,0.35 -0.203,0.862 -0.545,1.52" style="fill:none;stroke:#ff5c00;stroke-width:1.38px;"/><path d="M181.121,94.215c-0.043,0.082 -0.088,0.166 -0.137,0.253" style="fill:none;stroke:#ff5c00;stroke-width:1.38px;"/><path d="M180.985,94.467c-0.018,0.032 -0.037,0.065 -0.056,0.098c-0.018,-0.087 -0.037,-0.175 -0.056,-0.263" style="fill:none;stroke:#ff5c00;stroke-width:1.38px;"/><path d="M180.873,94.303c-0.448,-2.104 -1.008,-4.439 -1.704,-6.938" style="fill:none;stroke:#ff5c00;stroke-width:1.38px;"/><path d="M177.74,79.633c-7.132,-22.119 -23.247,-51.793 -59.069,-60.633c-34.298,-8.464 -15.861,27.823 -16.96,43.904c-0.433,6.55 -2.353,14.261 -0.382,21.35" style="fill:none;stroke:#ff3f00;stroke-width:1.6px;"/><path d="M110.442,96.092c2.911,1.902 6.625,3.612 11.345,5.064" style="fill:none;stroke:#ff3f00;stroke-width:1.6px;"/><path d="M130.488,103.299c1.222,0.239 2.492,0.464 3.812,0.677c-1.251,0.16 -2.551,0.337 -3.879,0.548" style="fill:none;stroke:#ff3f00;stroke-width:1.6px;"/><path d="M121.787,106.483c-3.082,0.98 -6.046,2.316 -8.612,4.202" style="fill:none;stroke:#ff3f00;stroke-width:1.6px;"/><path d="M105.051,133.552c0.436,3.877 1.422,8.281 3.069,13.288c9.251,28.13 43.125,10.539 61.546,-6.759" style="fill:none;stroke:#ff3f00;stroke-width:1.6px;"/><path d="M169.667,140.081c0.004,-0.004 0.008,-0.007 0.011,-0.011" style="fill:none;stroke:#ff3f00;stroke-width:1.6px;"/><path d="M169.661,140.065c0.002,0.005 0.004,0.011 0.006,0.016" style="fill:none;stroke:#ff3f00;stroke-width:1.6px;"/><path d="M169.667,140.081c8.263,23.883 30.108,55.225 51.335,34.616c14.984,-14.524 16.425,-25.479 12.586,-33.875" style="fill:none;stroke:#ff3f00;stroke-width:1.6px;"/><path d="M228.499,133.459c-1.031,-1.105 -2.129,-2.153 -3.261,-3.146" style="fill:none;stroke:#ff3f00;stroke-width:1.6px;"/><path d="M224.727,126.669c8.392,2.202 14.812,2.603 19.808,1.773" style="fill:none;stroke:#ff3f00;stroke-width:1.6px;"/><path d="M253.165,125.054c7.393,-5.173 9.454,-14.609 12.561,-21.673c1.999,-4.414 6.39,-9.624 10.628,-14.983" style="fill:none;stroke:#ff3f00;stroke-width:1.6px;"/><path d="M281.439,81.592c6.989,-10.262 9.508,-20.077 -10.189,-24.938c-35.833,-8.843 -63.909,9.94 -80.51,26.205" style="fill:none;stroke:#ff3f00;stroke-width:1.6px;"/><path d="M184.944,88.91c-1.184,1.316 -2.278,2.585 -3.278,3.785" style="fill:none;stroke:#ff3f00;stroke-width:1.6px;"/><path d="M181.666,92.694c-0.1,0.12 -0.2,0.24 -0.298,0.359c-0.002,-0.044 -0.003,-0.088 -0.004,-0.131" style="fill:none;stroke:#ff3f00;stroke-width:1.6px;"/><path d="M181.364,92.923c-0.006,-0.235 -0.005,-0.453 0.003,-0.656" style="fill:none;stroke:#ff3f00;stroke-width:1.6px;"/><path d="M181.367,92.267c0.031,-0.774 0.156,-1.314 0.299,-1.64" style="fill:none;stroke:#ff3f00;stroke-width:1.6px;"/><path d="M181.666,90.627c0.058,-0.132 0.118,-0.228 0.176,-0.291" style="fill:none;stroke:#ff3f00;stroke-width:1.6px;"/><path d="M181.843,90.336c0.129,-0.14 0.248,-0.113 0.299,0.068" style="fill:none;stroke:#ff3f00;stroke-width:1.6px;"/><path d="M182.142,90.404c0.023,0.082 0.033,0.195 0.023,0.339" style="fill:none;stroke:#ff3f00;stroke-width:1.6px;"/><path d="M182.165,90.743c-0.024,0.354 -0.163,0.891 -0.496,1.593" style="fill:none;stroke:#ff3f00;stroke-width:1.6px;"/><path d="M181.669,92.335c-0.088,0.185 -0.189,0.38 -0.305,0.587" style="fill:none;stroke:#ff3f00;stroke-width:1.6px;"/><path d="M181.364,92.923c-0.021,0.038 -0.043,0.075 -0.065,0.114c-0.031,-0.149 -0.063,-0.299 -0.095,-0.449" style="fill:none;stroke:#ff3f00;stroke-width:1.6px;"/><path d="M181.204,92.587c-0.345,-1.608 -0.745,-3.331 -1.21,-5.147" style="fill:none;stroke:#ff3f00;stroke-width:1.6px;"/><path d="M178.897,79.643c-7.617,-26.176 -26.17,-64.253 -70.413,-75.171c-40.133,-9.904 -18.56,32.556 -19.846,51.373c-0.483,7.308 -2.548,15.849 -0.74,23.819" style="fill:none;stroke:#d53400;stroke-width:1.87px;"/><path d="M91.806,88.231c2.034,2.724 4.891,5.274 8.856,7.557" style="fill:none;stroke:#d53400;stroke-width:1.87px;"/><path d="M111.918,100.539c2.941,0.914 6.219,1.741 9.869,2.47" style="fill:none;stroke:#d53400;stroke-width:1.87px;"/><path d="M121.787,104.619c-2.893,0.472 -5.885,1.085 -8.805,1.957" style="fill:none;stroke:#d53400;stroke-width:1.87px;"/><path d="M104.541,110.128c-6.959,4.055 -12.158,10.821 -12.303,22.565" style="fill:none;stroke:#d53400;stroke-width:1.87px;"/><path d="M92.828,140.643c0.602,4.003 1.679,8.458 3.311,13.419c10.825,32.916 50.462,12.332 72.017,-7.909" style="fill:none;stroke:#d53400;stroke-width:1.87px;"/><path d="M168.156,146.153c0.389,-0.365 0.772,-0.731 1.149,-1.095" style="fill:none;stroke:#d53400;stroke-width:1.87px;"/><path d="M169.305,145.058c0.527,-0.51 1.041,-1.019 1.543,-1.526c0.345,1.134 -0.51,1.559 -1.543,1.526" style="fill:none;stroke:#d53400;stroke-width:1.87px;"/><path d="M169.305,145.058c-0.554,-0.018 -1.159,-0.167 -1.657,-0.409" style="fill:none;stroke:#d53400;stroke-width:1.87px;"/><path d="M167.648,144.649c-0.93,-0.451 -1.489,-1.225 -0.657,-2.069c0.208,0.682 0.427,1.372 0.657,2.069" style="fill:none;stroke:#d53400;stroke-width:1.87px;"/><path d="M167.648,144.649c0.164,0.498 0.333,1 0.508,1.504" style="fill:none;stroke:#d53400;stroke-width:1.87px;"/><path d="M168.156,146.153c9.668,27.946 35.23,64.62 60.068,40.506c22.797,-22.097 18.803,-37.134 9.273,-47.709" style="fill:none;stroke:#d53400;stroke-width:1.87px;"/><path d="M232.076,133.774c-2.42,-2.033 -4.931,-3.866 -7.294,-5.527" style="fill:none;stroke:#d53400;stroke-width:1.87px;"/><path d="M224.77,128.119c7.73,2.578 14.244,4.036 19.765,4.604" style="fill:none;stroke:#d53400;stroke-width:1.87px;"/><path d="M253.165,132.859c19.714,-1.707 22.4,-18.296 27.393,-29.651c0.571,-1.261 1.309,-2.577 2.17,-3.937" style="fill:none;stroke:#d53400;stroke-width:1.87px;"/><path d="M289.757,89.743c12.484,-15.705 28.024,-33.62 -2.735,-41.211c-44.235,-10.917 -78.369,14.147 -97.291,33.772" style="fill:none;stroke:#d53400;stroke-width:1.87px;"/><path d="M184.068,88.503c-0.663,0.766 -1.298,1.514 -1.903,2.24" style="fill:none;stroke:#d53400;stroke-width:1.87px;"/><path d="M182.165,90.743c-0.107,0.128 -0.212,0.255 -0.317,0.381c-0.002,-0.052 -0.004,-0.103 -0.005,-0.153" style="fill:none;stroke:#d53400;stroke-width:1.87px;"/><path d="M181.843,90.971c-0.006,-0.224 -0.006,-0.436 -0,-0.635" style="fill:none;stroke:#d53400;stroke-width:1.87px;"/><path d="M181.843,90.336c0.038,-1.393 0.333,-2.173 0.583,-2.414" style="fill:none;stroke:#d53400;stroke-width:1.87px;"/><path d="M182.425,87.922c0.142,-0.137 0.269,-0.1 0.327,0.098" style="fill:none;stroke:#d53400;stroke-width:1.87px;"/><path d="M182.752,88.02c0.099,0.341 -0.009,1.159 -0.61,2.384" style="fill:none;stroke:#d53400;stroke-width:1.87px;"/><path d="M182.142,90.404c-0.089,0.18 -0.188,0.37 -0.299,0.568" style="fill:none;stroke:#d53400;stroke-width:1.87px;"/><path d="M181.843,90.971c-0.025,0.044 -0.05,0.088 -0.076,0.133c-0.033,-0.158 -0.067,-0.317 -0.101,-0.477" style="fill:none;stroke:#d53400;stroke-width:1.87px;"/><path d="M181.666,90.627c-0.209,-0.978 -0.436,-1.993 -0.682,-3.041" style="fill:none;stroke:#d53400;stroke-width:1.87px;"/><path d="M175.491,79.738c-6.103,-14.784 -17.848,-31.572 -40.245,-37.099c-24.804,-6.121 -11.471,20.121 -12.265,31.75c-0.133,2.017 -0.462,4.187 -0.685,6.409" style="fill:none;stroke:#ff772b;stroke-width:1.73px;"/><path d="M131.238,99.53c3.601,1.901 8.549,3.473 15.31,4.562c-5.245,0.671 -11.702,1.77 -16.132,5.526" style="fill:none;stroke:#ff772b;stroke-width:1.73px;"/><path d="M130.075,140.157c7.076,10.121 21.785,5.042 33.566,-3.114" style="fill:none;stroke:#ff772b;stroke-width:1.73px;"/><path d="M170.405,131.763c0.591,-0.519 1.165,-1.04 1.72,-1.561" style="fill:none;stroke:#ff772b;stroke-width:1.73px;"/><path d="M172.125,130.202c0.24,-0.226 0.477,-0.452 0.71,-0.677" style="fill:none;stroke:#ff772b;stroke-width:1.73px;"/><path d="M172.835,129.525c0.326,-0.315 0.644,-0.63 0.954,-0.943c0.213,0.701 -0.315,0.963 -0.954,0.943" style="fill:none;stroke:#ff772b;stroke-width:1.73px;"/><path d="M172.835,129.525c-0.342,-0.011 -0.716,-0.103 -1.024,-0.253" style="fill:none;stroke:#ff772b;stroke-width:1.73px;"/><path d="M171.811,129.272c-0.575,-0.279 -0.92,-0.757 -0.406,-1.278c0.129,0.422 0.264,0.848 0.406,1.278" style="fill:none;stroke:#ff772b;stroke-width:1.73px;"/><path d="M171.811,129.272c0.101,0.308 0.206,0.618 0.314,0.93" style="fill:none;stroke:#ff772b;stroke-width:1.73px;"/><path d="M172.125,130.202c0.319,0.921 0.665,1.857 1.038,2.803" style="fill:none;stroke:#ff772b;stroke-width:1.73px;"/><path d="M177.045,141.308c7.618,13.977 20.051,25.727 32.205,13.927c6.804,-6.595 9.746,-12.172 10.307,-16.912" style="fill:none;stroke:#ff772b;stroke-width:1.73px;"/><path d="M216.097,127.08c-2.562,-3.288 -6.096,-5.928 -9.185,-8.091c3.43,1.153 6.475,1.951 9.185,2.446" style="fill:none;stroke:#ff772b;stroke-width:1.73px;"/><path d="M224.727,121.98c12.126,-1.085 13.786,-11.314 16.866,-18.32c0.67,-1.479 1.712,-3.083 2.942,-4.763" style="fill:none;stroke:#ff772b;stroke-width:1.73px;"/><path d="M253.165,87.596c3.721,-5.558 5.525,-10.908 -0,-14.677" style="fill:none;stroke:#ff772b;stroke-width:1.73px;"/><path d="M244.535,69.619c-7.043,-1.601 -13.664,-1.731 -19.808,-0.835" style="fill:none;stroke:#ff772b;stroke-width:1.73px;"/><path d="M216.097,70.772c-9.247,2.92 -17.152,7.993 -23.478,13.285" style="fill:none;stroke:#ff772b;stroke-width:1.73px;"/><path d="M186.419,89.76c-2.216,2.233 -4.125,4.378 -5.707,6.281" style="fill:none;stroke:#ff772b;stroke-width:1.73px;"/><path d="M180.713,96.041c-0.042,0.05 -0.084,0.101 -0.125,0.151c-0.001,-0.032 -0.002,-0.063 -0.003,-0.094" style="fill:none;stroke:#ff772b;stroke-width:1.73px;"/><path d="M180.584,96.098c-0.002,-0.062 -0.003,-0.123 -0.003,-0.182" style="fill:none;stroke:#ff772b;stroke-width:1.73px;"/><path d="M180.582,95.916c-0.003,-0.855 0.144,-1.38 0.292,-1.612" style="fill:none;stroke:#ff772b;stroke-width:1.73px;"/><path d="M180.873,94.303c0.037,-0.058 0.074,-0.098 0.108,-0.12" style="fill:none;stroke:#ff772b;stroke-width:1.73px;"/><path d="M180.981,94.183c0.056,-0.036 0.106,-0.024 0.14,0.031" style="fill:none;stroke:#ff772b;stroke-width:1.73px;"/><path d="M181.121,94.215c0.021,0.035 0.036,0.087 0.042,0.155" style="fill:none;stroke:#ff772b;stroke-width:1.73px;"/><path d="M181.163,94.37c0.024,0.272 -0.089,0.807 -0.491,1.566" style="fill:none;stroke:#ff772b;stroke-width:1.73px;"/><path d="M180.673,95.936c-0.028,0.053 -0.057,0.107 -0.088,0.162" style="fill:none;stroke:#ff772b;stroke-width:1.73px;"/><path d="M180.584,96.098c-0.015,0.027 -0.031,0.055 -0.047,0.082c-0.013,-0.062 -0.026,-0.125 -0.04,-0.188" style="fill:none;stroke:#ff772b;stroke-width:1.73px;"/><path d="M180.498,95.992c-0.54,-2.54 -1.275,-5.483 -2.267,-8.662" style="fill:none;stroke:#ff772b;stroke-width:1.73px;"/><path d="M174.181,79.88c-5.464,-11.131 -15.002,-22.629 -31.553,-26.713c-20.575,-5.078 -9.515,16.69 -10.174,26.337c-0.175,2.654 -0.758,5.626 -0.753,8.586" style="fill:none;stroke:#ff9255;stroke-width:1.73px;"/><path d="M133.41,95.106c2.325,3.917 7.536,7.256 18.594,9.037c-9.19,1.175 -22.869,3.937 -15.705,25.713c3.808,11.579 14.57,10.244 24.52,4.914" style="fill:none;stroke:#ff9255;stroke-width:1.73px;"/><path d="M168.066,130.12c1.857,-1.391 3.598,-2.857 5.154,-4.318" style="fill:none;stroke:#ff9255;stroke-width:1.73px;"/><path d="M173.22,125.802c0.199,-0.187 0.396,-0.375 0.589,-0.562" style="fill:none;stroke:#ff9255;stroke-width:1.73px;"/><path d="M173.809,125.24c0.27,-0.261 0.534,-0.522 0.791,-0.782c0.177,0.582 -0.262,0.799 -0.791,0.782" style="fill:none;stroke:#ff9255;stroke-width:1.73px;"/><path d="M173.809,125.24c-0.284,-0.009 -0.594,-0.086 -0.85,-0.21" style="fill:none;stroke:#ff9255;stroke-width:1.73px;"/><path d="M172.96,125.03c-0.477,-0.231 -0.763,-0.628 -0.337,-1.061c0.107,0.35 0.219,0.704 0.337,1.061" style="fill:none;stroke:#ff9255;stroke-width:1.73px;"/><path d="M172.96,125.03c0.084,0.255 0.171,0.513 0.26,0.771" style="fill:none;stroke:#ff9255;stroke-width:1.73px;"/><path d="M173.22,125.802c0.883,2.553 2.025,5.248 3.377,7.883" style="fill:none;stroke:#ff9255;stroke-width:1.73px;"/><path d="M181.204,141.165c6.235,8.388 14.6,13.373 22.811,5.402c15.058,-14.596 7.315,-23.183 0.079,-28.612" style="fill:none;stroke:#ff9255;stroke-width:1.73px;"/><path d="M204.227,117.186c4.902,1.474 8.775,2.002 11.87,1.848" style="fill:none;stroke:#ff9255;stroke-width:1.73px;"/><path d="M224.727,115.612c3.312,-3.22 4.47,-8.08 6.118,-11.827c3.996,-8.823 23.919,-22.945 3.314,-28.03c-3.253,-0.803 -6.399,-1.226 -9.432,-1.332" style="fill:none;stroke:#ff9255;stroke-width:1.73px;"/><path d="M216.097,74.972c-8.749,1.43 -16.306,5.352 -22.437,9.852" style="fill:none;stroke:#ff9255;stroke-width:1.73px;"/><path d="M187.141,90.25c-2.792,2.612 -5.106,5.171 -6.901,7.34c-0.001,-0.026 -0.002,-0.053 -0.003,-0.078" style="fill:none;stroke:#ff9255;stroke-width:1.73px;"/><path d="M180.237,97.512c-0.022,-0.842 0.124,-1.334 0.261,-1.52" style="fill:none;stroke:#ff9255;stroke-width:1.73px;"/><path d="M180.498,95.992c0.029,-0.039 0.057,-0.064 0.084,-0.077" style="fill:none;stroke:#ff9255;stroke-width:1.73px;"/><path d="M180.582,95.916c0.035,-0.016 0.067,-0.009 0.091,0.02" style="fill:none;stroke:#ff9255;stroke-width:1.73px;"/><path d="M180.673,95.936c0.018,0.022 0.032,0.058 0.04,0.106" style="fill:none;stroke:#ff9255;stroke-width:1.73px;"/><path d="M180.713,96.041c0.037,0.226 -0.061,0.731 -0.475,1.471" style="fill:none;stroke:#ff9255;stroke-width:1.73px;"/><path d="M180.237,97.512c-0.013,0.023 -0.026,0.045 -0.039,0.068c-0.608,-2.889 -1.522,-6.423 -2.88,-10.236" style="fill:none;stroke:#ff9255;stroke-width:1.73px;"/><path d="M172.482,80.165c-4.607,-7.297 -11.722,-14.059 -22.676,-16.762c-14.371,-3.547 -9.454,9.275 -8.323,17.726" style="fill:none;stroke:#ffad80;stroke-width:1.73px;"/><path d="M141.125,89.704c-0.373,5.145 0.612,10.535 11.212,13.436" style="fill:none;stroke:#ffad80;stroke-width:1.73px;"/><path d="M152.023,105.181c-6.154,1.72 -11.722,6.087 -7.282,19.587c2.212,6.725 7.356,8.006 13.055,6.572" style="fill:none;stroke:#ffad80;stroke-width:1.73px;"/><path d="M165.834,127.871c3.107,-1.832 6.051,-4.095 8.45,-6.348" style="fill:none;stroke:#ffad80;stroke-width:1.73px;"/><path d="M174.285,121.524c0.16,-0.15 0.317,-0.3 0.471,-0.449" style="fill:none;stroke:#ffad80;stroke-width:1.73px;"/><path d="M174.756,121.074c0.216,-0.209 0.427,-0.418 0.633,-0.626c0.141,0.465 -0.209,0.639 -0.633,0.626" style="fill:none;stroke:#ffad80;stroke-width:1.73px;"/><path d="M174.756,121.074c-0.227,-0.007 -0.475,-0.069 -0.68,-0.168" style="fill:none;stroke:#ffad80;stroke-width:1.73px;"/><path d="M174.076,120.906c-0.381,-0.185 -0.611,-0.502 -0.269,-0.849c0.085,0.28 0.175,0.563 0.269,0.849" style="fill:none;stroke:#ffad80;stroke-width:1.73px;"/><path d="M174.076,120.906c0.067,0.204 0.137,0.41 0.208,0.617" style="fill:none;stroke:#ffad80;stroke-width:1.73px;"/><path d="M174.285,121.524c1.378,3.982 3.542,8.395 6.207,12.046" style="fill:none;stroke:#ffad80;stroke-width:1.73px;"/><path d="M187.021,139.883c3.727,2.181 7.84,2.204 11.905,-1.743c8.521,-8.259 7.918,-14.114 4.786,-18.371" style="fill:none;stroke:#ffad80;stroke-width:1.73px;"/><path d="M204.42,115.862c6.151,0.921 9.538,-0.647 11.678,-3.127" style="fill:none;stroke:#ffad80;stroke-width:1.73px;"/><path d="M224.727,97.682c2.56,-3.209 5.247,-6.594 5.626,-9.537" style="fill:none;stroke:#ffad80;stroke-width:1.73px;"/><path d="M216.097,80.437c-2.487,-0.129 -4.879,0.009 -7.17,0.361" style="fill:none;stroke:#ffad80;stroke-width:1.73px;"/><path d="M208.927,80.798c-0.65,0.1 -1.292,0.217 -1.926,0.35" style="fill:none;stroke:#ffad80;stroke-width:1.73px;"/><path d="M207.001,81.149c-4.441,0.934 -8.476,2.656 -12.053,4.749" style="fill:none;stroke:#ffad80;stroke-width:1.73px;"/><path d="M187.936,90.854c-3.384,2.825 -6.09,5.746 -8.035,8.096c-0.001,-0.021 -0.001,-0.042 -0.002,-0.063" style="fill:none;stroke:#ffad80;stroke-width:1.73px;"/><path d="M179.9,98.887c-0.049,-1.826 0.893,-1.594 0,0" style="fill:none;stroke:#ffad80;stroke-width:1.73px;"/><path d="M179.9,98.887c-0.01,0.018 -0.02,0.036 -0.031,0.055c-0.66,-3.134 -1.77,-7.218 -3.605,-11.521" style="fill:none;stroke:#ffad80;stroke-width:1.73px;"/><path d="M169.836,80.862c-3.23,-3.292 -7.449,-6.011 -12.955,-7.37c-7.855,-1.939 -8.066,2.61 -7.263,7.686" style="fill:none;stroke:#ffc9aa;stroke-width:1.73px;"/><path d="M149.617,81.178c0.255,1.61 0.611,3.272 0.858,4.798" style="fill:none;stroke:#ffc9aa;stroke-width:1.73px;"/><path d="M150.476,85.977c0.205,1.264 0.334,2.435 0.268,3.403c-0.233,3.526 -1.657,7.98 2.134,11.242" style="fill:none;stroke:#ffc9aa;stroke-width:1.73px;"/><path d="M160.988,103.963c0.494,0.099 1.009,0.192 1.548,0.278c-0.53,0.068 -1.086,0.144 -1.652,0.239" style="fill:none;stroke:#ffc9aa;stroke-width:1.73px;"/><path d="M163.589,124.518c4.14,-1.234 8.575,-4.235 11.745,-7.212" style="fill:none;stroke:#ffc9aa;stroke-width:1.73px;"/><path d="M175.334,117.307c0.12,-0.113 0.239,-0.226 0.355,-0.339" style="fill:none;stroke:#ffc9aa;stroke-width:1.73px;"/><path d="M175.689,116.968c0.163,-0.158 0.322,-0.315 0.477,-0.472c0.107,0.351 -0.158,0.482 -0.477,0.472" style="fill:none;stroke:#ffc9aa;stroke-width:1.73px;"/><path d="M175.689,116.968c-0.171,-0.005 -0.358,-0.052 -0.512,-0.126" style="fill:none;stroke:#ffc9aa;stroke-width:1.73px;"/><path d="M175.177,116.841c-0.288,-0.14 -0.461,-0.379 -0.203,-0.64c0.064,0.211 0.132,0.424 0.203,0.64" style="fill:none;stroke:#ffc9aa;stroke-width:1.73px;"/><path d="M175.177,116.841c0.051,0.154 0.103,0.309 0.157,0.465" style="fill:none;stroke:#ffc9aa;stroke-width:1.73px;"/><path d="M175.334,117.307c1.936,5.594 5.931,12.32 10.591,14.345" style="fill:none;stroke:#ffc9aa;stroke-width:1.73px;"/><path d="M195.924,114.21c-1.02,-0.961 -2.152,-1.791 -3.184,-2.514c1.196,0.402 2.298,0.718 3.315,0.956" style="fill:none;stroke:#ffc9aa;stroke-width:1.73px;"/><path d="M204.71,112.369c3.372,-1.699 4.15,-5.538 5.384,-8.343c1.088,-2.402 4.132,-5.454 6.003,-8.363" style="fill:none;stroke:#ffc9aa;stroke-width:1.73px;"/><path d="M216.097,88.796c-0.304,-0.228 -0.659,-0.446 -1.069,-0.651" style="fill:none;stroke:#ffc9aa;stroke-width:1.73px;"/><path d="M207.001,86.342c-3.683,-0.212 -7.094,0.355 -10.194,1.4" style="fill:none;stroke:#ffc9aa;stroke-width:1.73px;"/><path d="M188.919,91.705c-4.126,2.785 -7.3,6.107 -9.35,8.584c-0.001,-0.016 -0.001,-0.032 -0.002,-0.047" style="fill:none;stroke:#ffc9aa;stroke-width:1.73px;"/><path d="M179.567,100.242c-0.037,-1.377 0.673,-1.202 0,0" style="fill:none;stroke:#ffc9aa;stroke-width:1.73px;"/><path d="M179.567,100.242c-0.008,0.014 -0.015,0.027 -0.023,0.041c-0.698,-3.315 -2.064,-8.041 -4.671,-12.653" style="fill:none;stroke:#ffc9aa;stroke-width:1.73px;"/><path d="M164.308,83.554c-0.15,-0.041 -0.302,-0.08 -0.455,-0.118c-5.184,-1.279 -5.459,1.607 -4.968,4.936" style="fill:none;stroke:#ffe4d5;stroke-width:1.73px;"/><path d="M161.446,102.083c1.247,0.942 3.206,1.719 6.243,2.208c-3.76,0.481 -9.356,1.61 -6.425,10.519c2.27,6.903 10.583,2.586 15.104,-1.659" style="fill:none;stroke:#ffe4d5;stroke-width:1.73px;"/><path d="M176.368,113.151c0.082,-0.077 0.162,-0.153 0.241,-0.23" style="fill:none;stroke:#ffe4d5;stroke-width:1.73px;"/><path d="M176.609,112.921c0.11,-0.107 0.218,-0.214 0.324,-0.32c0.072,0.238 -0.107,0.327 -0.324,0.32" style="fill:none;stroke:#ffe4d5;stroke-width:1.73px;"/><path d="M176.609,112.921c-0.116,-0.004 -0.243,-0.035 -0.348,-0.086" style="fill:none;stroke:#ffe4d5;stroke-width:1.73px;"/><path d="M176.262,112.835c-0.195,-0.095 -0.312,-0.257 -0.138,-0.434c0.044,0.143 0.09,0.288 0.138,0.434" style="fill:none;stroke:#ffe4d5;stroke-width:1.73px;"/><path d="M176.262,112.835c0.034,0.105 0.07,0.21 0.107,0.316" style="fill:none;stroke:#ffe4d5;stroke-width:1.73px;"/><path d="M176.368,113.151c2.028,5.861 7.389,13.553 12.598,8.495c6.742,-6.535 2.311,-10.126 -0.793,-12.301c3.894,1.309 6.326,1.27 7.933,0.545" style="fill:none;stroke:#ffe4d5;stroke-width:1.73px;"/><path d="M203.227,99.592c2.097,-2.795 3.412,-5.597 -1.929,-6.915c-0.362,-0.089 -0.72,-0.167 -1.076,-0.234" style="fill:none;stroke:#ffe4d5;stroke-width:1.73px;"/><path d="M190.42,93.28c-5.21,1.915 -9.071,5.781 -11.18,8.329c-0,-0.011 -0.001,-0.022 -0.001,-0.032" style="fill:none;stroke:#ffe4d5;stroke-width:1.73px;"/><path d="M179.239,101.577c-0.025,-0.934 0.457,-0.815 0,0" style="fill:none;stroke:#ffe4d5;stroke-width:1.73px;"/><path d="M179.239,101.577c-0.005,0.009 -0.01,0.019 -0.016,0.028c-0.722,-3.429 -2.496,-9.081 -6.706,-13.295" style="fill:none;stroke:#ffe4d5;stroke-width:1.73px;"/></g><g><path d="M51.559,140.157l-8.63,0l0,-8.863c-2.021,3.304 -4.49,5.802 -7.405,7.493c-2.915,1.691 -5.889,2.536 -8.921,2.536c-3.965,0 -7.454,-0.816 -10.467,-2.449c-3.013,-1.633 -5.549,-3.858 -7.609,-6.676c-2.06,-2.818 -3.615,-6.103 -4.665,-9.854c-1.05,-3.751 -1.574,-7.726 -1.574,-11.924c0,-4.198 0.505,-8.163 1.516,-11.895c1.011,-3.732 2.527,-6.997 4.548,-9.796c2.021,-2.799 4.538,-5.015 7.551,-6.647c3.013,-1.633 6.502,-2.449 10.467,-2.449c2.799,0 5.598,0.709 8.397,2.128c2.799,1.419 5.52,3.897 8.163,7.434l0,-30.787l8.63,0l0,81.75Z" style="fill:none;stroke:#d5000d;stroke-width:1.8px;"/><path d="M42.929,109.487c-0.078,-3.032 -0.486,-5.889 -1.225,-8.572c-0.739,-2.682 -1.788,-5.024 -3.149,-7.026c-1.361,-2.002 -3.013,-3.596 -4.956,-4.781c-1.944,-1.186 -4.159,-1.778 -6.647,-1.778c-2.527,0 -4.791,0.612 -6.793,1.837c-2.002,1.225 -3.683,2.886 -5.044,4.985c-1.361,2.099 -2.4,4.548 -3.12,7.347c-0.719,2.799 -1.079,5.773 -1.079,8.921c0,3.149 0.36,6.123 1.079,8.921c0.719,2.799 1.759,5.258 3.12,7.376c1.361,2.119 3.042,3.8 5.044,5.044c2.002,1.244 4.266,1.866 6.793,1.866c2.527,0 4.781,-0.583 6.764,-1.749c1.983,-1.166 3.654,-2.77 5.015,-4.811c1.361,-2.041 2.4,-4.432 3.12,-7.172c0.719,-2.741 1.079,-5.685 1.079,-8.834l0,-1.574Z" style="fill:none;stroke:#d5000d;stroke-width:1.8px;"/><path d="M92.828,140.643c-1.984,0.454 -4.104,0.681 -6.359,0.681c-4.237,0 -7.998,-0.816 -11.283,-2.449c-3.285,-1.633 -6.045,-3.848 -8.28,-6.647c-2.235,-2.799 -3.926,-6.054 -5.073,-9.767c-1.147,-3.712 -1.72,-7.648 -1.72,-11.808c0,-4.198 0.573,-8.173 1.72,-11.924c1.147,-3.751 2.838,-7.036 5.073,-9.854c2.235,-2.818 4.995,-5.063 8.28,-6.735c3.285,-1.672 7.046,-2.507 11.283,-2.507c0.482,0 0.959,0.011 1.429,0.032" style="fill:none;stroke:#d5000d;stroke-width:1.8px;"/><path d="M87.898,79.664c3.696,0.167 7.01,0.992 9.942,2.475c1.235,0.625 2.398,1.33 3.489,2.115" style="fill:none;stroke:#d5000d;stroke-width:1.8px;"/><path d="M101.329,84.254c1.828,1.315 3.454,2.855 4.878,4.62c1.725,2.137 3.136,4.543 4.235,7.217" style="fill:none;stroke:#d5000d;stroke-width:1.8px;"/><path d="M110.442,96.092c0.35,0.852 0.668,1.731 0.954,2.637c0.189,0.598 0.363,1.202 0.522,1.811" style="fill:none;stroke:#d5000d;stroke-width:1.8px;"/><path d="M111.918,100.539c0.509,1.954 0.864,3.966 1.064,6.037" style="fill:none;stroke:#d5000d;stroke-width:1.8px;"/><path d="M112.982,106.577c0.129,1.334 0.193,2.693 0.193,4.076c-0,0.011 -0,0.022 -0,0.033" style="fill:none;stroke:#d5000d;stroke-width:1.8px;"/><path d="M113.175,110.686c-0.003,4.147 -0.596,8.072 -1.778,11.775c-1.186,3.712 -2.915,6.968 -5.19,9.767c-0.371,0.457 -0.757,0.899 -1.155,1.325" style="fill:none;stroke:#d5000d;stroke-width:1.8px;"/><path d="M105.051,133.552c-2.043,2.182 -4.447,3.957 -7.212,5.323c-1.562,0.772 -3.233,1.361 -5.012,1.768" style="fill:none;stroke:#d5000d;stroke-width:1.8px;"/><path d="M91.806,88.231c-1.654,-0.601 -3.433,-0.902 -5.337,-0.902c-2.76,0 -5.238,0.632 -7.434,1.895c-2.196,1.263 -4.053,2.964 -5.569,5.102c-1.516,2.138 -2.682,4.616 -3.499,7.434c-0.816,2.818 -1.225,5.782 -1.225,8.892c0,3.11 0.408,6.054 1.225,8.834c0.816,2.779 1.983,5.228 3.499,7.347c1.516,2.119 3.372,3.8 5.569,5.044c2.196,1.244 4.674,1.866 7.434,1.866c2.071,0 3.994,-0.35 5.769,-1.05" style="fill:none;stroke:#d5000d;stroke-width:1.8px;"/><path d="M92.239,132.693c0.591,-0.233 1.165,-0.505 1.723,-0.815c2.235,-1.244 4.14,-2.925 5.714,-5.044c1.574,-2.119 2.779,-4.568 3.615,-7.347c0.836,-2.779 1.254,-5.724 1.254,-8.834c0,-0.175 -0.001,-0.35 -0.004,-0.525" style="fill:none;stroke:#d5000d;stroke-width:1.8px;"/><path d="M104.541,110.128c-0.044,-2.919 -0.461,-5.708 -1.25,-8.367c-0.652,-2.198 -1.528,-4.189 -2.629,-5.973" style="fill:none;stroke:#d5000d;stroke-width:1.8px;"/><path d="M100.662,95.787c-0.311,-0.504 -0.639,-0.991 -0.986,-1.461c-1.574,-2.138 -3.479,-3.839 -5.714,-5.102c-0.693,-0.392 -1.412,-0.723 -2.156,-0.993" style="fill:none;stroke:#d5000d;stroke-width:1.8px;"/><path d="M121.787,98.493l0,-17.694l0.509,0" style="fill:none;stroke:#d5000d;stroke-width:1.8px;"/><path d="M122.296,80.798l8.121,0l-0.35,9.854c0.519,-0.916 1.064,-1.771 1.634,-2.563" style="fill:none;stroke:#d5000d;stroke-width:1.8px;"/><path d="M131.701,88.09c1.439,-1.998 3.042,-3.602 4.809,-4.813c1.503,-1.029 3.16,-1.745 4.972,-2.148" style="fill:none;stroke:#d5000d;stroke-width:1.8px;"/><path d="M141.483,81.128c1.165,-0.259 2.394,-0.388 3.687,-0.388c0.272,0 0.651,0.01 1.137,0.029c0.486,0.019 0.991,0.058 1.516,0.117c0.525,0.058 1.03,0.136 1.516,0.233c0.097,0.019 0.19,0.039 0.279,0.06" style="fill:none;stroke:#d5000d;stroke-width:1.8px;"/><path d="M149.617,81.178c0.354,0.081 0.64,0.168 0.858,0.261l0,4.537" style="fill:none;stroke:#d5000d;stroke-width:1.8px;"/><path d="M150.476,85.977l0,4.268c-0.894,-0.311 -1.905,-0.554 -3.032,-0.729c-1.127,-0.175 -1.963,-0.262 -2.507,-0.262c-1.359,0 -2.629,0.15 -3.811,0.45" style="fill:none;stroke:#d5000d;stroke-width:1.8px;"/><path d="M141.125,89.704c-0.812,0.206 -1.583,0.484 -2.312,0.832c-1.788,0.855 -3.304,2.012 -4.548,3.469c-0.302,0.354 -0.587,0.721 -0.855,1.101" style="fill:none;stroke:#d5000d;stroke-width:1.8px;"/><path d="M133.41,95.106c-0.834,1.182 -1.502,2.487 -2.002,3.914c-0.059,0.169 -0.116,0.339 -0.17,0.51" style="fill:none;stroke:#d5000d;stroke-width:1.8px;"/><path d="M131.238,99.53c-0.251,0.793 -0.444,1.601 -0.58,2.425" style="fill:none;stroke:#d5000d;stroke-width:1.8px;"/><path d="M130.658,101.954c-0.073,0.444 -0.13,0.892 -0.17,1.345" style="fill:none;stroke:#d5000d;stroke-width:1.8px;"/><path d="M130.488,103.299c-0.036,0.405 -0.058,0.813 -0.067,1.225" style="fill:none;stroke:#d5000d;stroke-width:1.8px;"/><path d="M130.422,104.525c-0.003,0.137 -0.004,0.275 -0.004,0.414l0,0.965" style="fill:none;stroke:#d5000d;stroke-width:1.8px;"/><path d="M130.417,105.903l-0,3.714" style="fill:none;stroke:#d5000d;stroke-width:1.8px;"/><path d="M130.417,109.618l0,30.54l-0.342,0" style="fill:none;stroke:#d5000d;stroke-width:1.8px;"/><path d="M130.075,140.157l-8.287,-0l-0,-30.176" style="fill:none;stroke:#d5000d;stroke-width:1.8px;"/><path d="M121.787,109.981l0,-3.498" style="fill:none;stroke:#d5000d;stroke-width:1.8px;"/><path d="M121.787,106.483l0,-1.864" style="fill:none;stroke:#d5000d;stroke-width:1.8px;"/><path d="M121.787,104.619l0,-1.609" style="fill:none;stroke:#d5000d;stroke-width:1.8px;"/><path d="M121.787,103.01l0,-1.854" style="fill:none;stroke:#d5000d;stroke-width:1.8px;"/><path d="M121.787,101.156l-0,-2.663" style="fill:none;stroke:#d5000d;stroke-width:1.8px;"/><path d="M157.796,131.34c-1.902,-2.593 -3.366,-5.553 -4.394,-8.879c-1.147,-3.712 -1.72,-7.648 -1.72,-11.808c0,-1.868 0.114,-3.692 0.341,-5.472" style="fill:none;stroke:#d5000d;stroke-width:1.8px;"/><path d="M152.023,105.181c0.088,-0.687 0.192,-1.368 0.314,-2.042" style="fill:none;stroke:#d5000d;stroke-width:1.8px;"/><path d="M152.337,103.139c0.153,-0.85 0.333,-1.689 0.54,-2.518" style="fill:none;stroke:#d5000d;stroke-width:1.8px;"/><path d="M152.877,100.621c0.159,-0.637 0.334,-1.268 0.525,-1.893c1.147,-3.751 2.838,-7.036 5.073,-9.854c0.134,-0.17 0.271,-0.337 0.409,-0.502" style="fill:none;stroke:#d5000d;stroke-width:1.8px;"/><path d="M158.885,88.372c1.565,-1.872 3.373,-3.478 5.424,-4.818" style="fill:none;stroke:#d5000d;stroke-width:1.8px;"/><path d="M164.308,83.554c0.781,-0.51 1.596,-0.982 2.447,-1.415c0.984,-0.501 2.011,-0.927 3.081,-1.277" style="fill:none;stroke:#d5000d;stroke-width:1.8px;"/><path d="M169.836,80.862c0.855,-0.28 1.737,-0.513 2.646,-0.697" style="fill:none;stroke:#d5000d;stroke-width:1.8px;"/><path d="M172.482,80.165c0.556,-0.113 1.123,-0.208 1.699,-0.285" style="fill:none;stroke:#d5000d;stroke-width:1.8px;"/><path d="M174.181,79.88c0.431,-0.058 0.867,-0.105 1.309,-0.143" style="fill:none;stroke:#d5000d;stroke-width:1.8px;"/><path d="M175.491,79.738c0.406,-0.034 0.817,-0.061 1.233,-0.078" style="fill:none;stroke:#d5000d;stroke-width:1.8px;"/><path d="M176.724,79.659c0.335,-0.014 0.674,-0.023 1.016,-0.026" style="fill:none;stroke:#d5000d;stroke-width:1.8px;"/><path d="M177.74,79.633c0.099,-0.001 0.199,-0.001 0.299,-0.001c0.288,0 0.574,0.004 0.858,0.011" style="fill:none;stroke:#d5000d;stroke-width:1.8px;"/><path d="M178.897,79.643c3.927,0.105 7.431,0.937 10.512,2.496c0.108,0.055 0.215,0.11 0.322,0.165" style="fill:none;stroke:#d5000d;stroke-width:1.8px;"/><path d="M189.731,82.305c0.342,0.179 0.678,0.364 1.009,0.555" style="fill:none;stroke:#d5000d;stroke-width:1.8px;"/><path d="M190.74,82.86c0.292,0.169 0.58,0.343 0.863,0.521" style="fill:none;stroke:#d5000d;stroke-width:1.8px;"/><path d="M191.603,83.381c0.346,0.218 0.685,0.443 1.017,0.676" style="fill:none;stroke:#d5000d;stroke-width:1.8px;"/><path d="M192.62,84.056c0.354,0.248 0.701,0.504 1.041,0.768" style="fill:none;stroke:#d5000d;stroke-width:1.8px;"/><path d="M193.66,84.824c0.442,0.344 0.871,0.702 1.287,1.073" style="fill:none;stroke:#d5000d;stroke-width:1.8px;"/><path d="M194.948,85.898c0.651,0.581 1.27,1.195 1.86,1.844" style="fill:none;stroke:#d5000d;stroke-width:1.8px;"/><path d="M196.807,87.742c0.333,0.366 0.656,0.744 0.969,1.132c0.901,1.116 1.716,2.306 2.446,3.569" style="fill:none;stroke:#d5000d;stroke-width:1.8px;"/><path d="M200.223,92.443c1.113,1.925 2.027,4.02 2.743,6.286c0.091,0.287 0.178,0.575 0.261,0.864" style="fill:none;stroke:#d5000d;stroke-width:1.8px;"/><path d="M203.227,99.592c1.011,3.496 1.517,7.183 1.517,11.061c0,0.577 -0.011,1.149 -0.034,1.717" style="fill:none;stroke:#d5000d;stroke-width:1.8px;"/><path d="M204.71,112.369c-0.047,1.183 -0.144,2.347 -0.291,3.493" style="fill:none;stroke:#d5000d;stroke-width:1.8px;"/><path d="M204.42,115.862c-0.057,0.444 -0.121,0.885 -0.192,1.323" style="fill:none;stroke:#d5000d;stroke-width:1.8px;"/><path d="M204.227,117.186c-0.042,0.258 -0.087,0.514 -0.134,0.77" style="fill:none;stroke:#d5000d;stroke-width:1.8px;"/><path d="M204.094,117.956c-0.112,0.61 -0.24,1.215 -0.381,1.814" style="fill:none;stroke:#d5000d;stroke-width:1.8px;"/><path d="M203.712,119.769c-0.215,0.91 -0.464,1.807 -0.746,2.691c-1.186,3.712 -2.915,6.968 -5.19,9.767c-2.274,2.799 -5.063,5.015 -8.367,6.647c-0.77,0.38 -1.566,0.716 -2.388,1.008" style="fill:none;stroke:#d5000d;stroke-width:1.8px;"/><path d="M187.021,139.883c-1.811,0.642 -3.75,1.07 -5.816,1.283" style="fill:none;stroke:#d5000d;stroke-width:1.8px;"/><path d="M181.204,141.165c-1.024,0.105 -2.079,0.158 -3.166,0.158c-0.334,-0 -0.666,-0.005 -0.994,-0.015" style="fill:none;stroke:#d5000d;stroke-width:1.8px;"/><path d="M177.045,141.308c-1.387,-0.043 -2.722,-0.177 -4.003,-0.401" style="fill:none;stroke:#d5000d;stroke-width:1.8px;"/><path d="M173.042,140.907c-1.165,-0.204 -2.286,-0.483 -3.364,-0.837" style="fill:none;stroke:#d5000d;stroke-width:1.8px;"/><path d="M169.678,140.071c-0.006,-0.002 -0.011,-0.004 -0.017,-0.006" style="fill:none;stroke:#d5000d;stroke-width:1.8px;"/><path d="M169.661,140.065c-1.003,-0.33 -1.969,-0.726 -2.896,-1.186" style="fill:none;stroke:#d5000d;stroke-width:1.8px;"/><path d="M166.765,138.879c-0.003,-0.001 -0.006,-0.003 -0.009,-0.004c-1.097,-0.545 -2.135,-1.155 -3.115,-1.831" style="fill:none;stroke:#d5000d;stroke-width:1.8px;"/><path d="M163.64,137.044c-1.001,-0.69 -1.941,-1.448 -2.821,-2.274" style="fill:none;stroke:#d5000d;stroke-width:1.8px;"/><path d="M160.82,134.77c-0.837,-0.786 -1.618,-1.634 -2.344,-2.543c-0.232,-0.291 -0.459,-0.587 -0.679,-0.887" style="fill:none;stroke:#d5000d;stroke-width:1.8px;"/><path d="M160.884,104.481c-0.381,1.989 -0.572,4.047 -0.572,6.172c0,3.11 0.408,6.054 1.225,8.834c0.534,1.819 1.218,3.496 2.052,5.032" style="fill:none;stroke:#d5000d;stroke-width:1.8px;"/><path d="M163.589,124.518c0.44,0.811 0.923,1.583 1.447,2.315c0.257,0.358 0.523,0.704 0.799,1.038" style="fill:none;stroke:#d5000d;stroke-width:1.8px;"/><path d="M165.834,127.871c0.684,0.826 1.428,1.576 2.232,2.248" style="fill:none;stroke:#d5000d;stroke-width:1.8px;"/><path d="M168.066,130.12c0.73,0.611 1.51,1.159 2.339,1.643" style="fill:none;stroke:#d5000d;stroke-width:1.8px;"/><path d="M170.405,131.763c0.066,0.039 0.132,0.077 0.199,0.114c0.814,0.461 1.667,0.837 2.559,1.127" style="fill:none;stroke:#d5000d;stroke-width:1.8px;"/><path d="M173.163,133.005c1.087,0.354 2.232,0.581 3.434,0.68" style="fill:none;stroke:#d5000d;stroke-width:1.8px;"/><path d="M176.598,133.685c0.471,0.039 0.952,0.059 1.441,0.059c0.842,0 1.66,-0.058 2.453,-0.174" style="fill:none;stroke:#d5000d;stroke-width:1.8px;"/><path d="M180.491,133.57c1.807,-0.264 3.487,-0.828 5.04,-1.692c0.133,-0.074 0.264,-0.149 0.394,-0.226" style="fill:none;stroke:#d5000d;stroke-width:1.8px;"/><path d="M185.925,131.652c2.066,-1.219 3.839,-2.825 5.32,-4.818c1.574,-2.119 2.779,-4.568 3.615,-7.347c0.51,-1.697 0.865,-3.456 1.064,-5.277" style="fill:none;stroke:#d5000d;stroke-width:1.8px;"/><path d="M195.924,114.21c0.056,-0.514 0.1,-1.034 0.131,-1.558" style="fill:none;stroke:#d5000d;stroke-width:1.8px;"/><path d="M196.056,112.652c0.039,-0.659 0.059,-1.325 0.059,-1.999c0,-0.255 -0.003,-0.509 -0.008,-0.762" style="fill:none;stroke:#d5000d;stroke-width:1.8px;"/><path d="M196.106,109.891c-0.063,-2.833 -0.478,-5.543 -1.245,-8.13c-0.836,-2.818 -2.041,-5.296 -3.615,-7.434c-0.266,-0.361 -0.541,-0.71 -0.826,-1.046" style="fill:none;stroke:#d5000d;stroke-width:1.8px;"/><path d="M190.42,93.28c-0.474,-0.56 -0.975,-1.085 -1.501,-1.576" style="fill:none;stroke:#d5000d;stroke-width:1.8px;"/><path d="M188.919,91.705c-0.318,-0.296 -0.645,-0.58 -0.982,-0.851" style="fill:none;stroke:#d5000d;stroke-width:1.8px;"/><path d="M187.936,90.854c-0.259,-0.209 -0.525,-0.41 -0.795,-0.604" style="fill:none;stroke:#d5000d;stroke-width:1.8px;"/><path d="M187.141,90.25c-0.236,-0.169 -0.477,-0.332 -0.722,-0.49" style="fill:none;stroke:#d5000d;stroke-width:1.8px;"/><path d="M186.419,89.76c-0.253,-0.163 -0.51,-0.319 -0.772,-0.47" style="fill:none;stroke:#d5000d;stroke-width:1.8px;"/><path d="M185.647,89.29c-0.039,-0.022 -0.077,-0.044 -0.116,-0.066c-0.194,-0.109 -0.389,-0.214 -0.587,-0.314" style="fill:none;stroke:#d5000d;stroke-width:1.8px;"/><path d="M184.944,88.91c-0.288,-0.146 -0.58,-0.281 -0.877,-0.407" style="fill:none;stroke:#d5000d;stroke-width:1.8px;"/><path d="M184.068,88.503c-0.43,-0.182 -0.868,-0.343 -1.315,-0.483" style="fill:none;stroke:#d5000d;stroke-width:1.8px;"/><path d="M182.752,88.02c-0.108,-0.034 -0.217,-0.067 -0.327,-0.098" style="fill:none;stroke:#d5000d;stroke-width:1.8px;"/><path d="M182.425,87.922c-0.471,-0.135 -0.951,-0.247 -1.441,-0.336" style="fill:none;stroke:#d5000d;stroke-width:1.8px;"/><path d="M180.984,87.586c-0.326,-0.059 -0.656,-0.108 -0.99,-0.147" style="fill:none;stroke:#d5000d;stroke-width:1.8px;"/><path d="M179.994,87.44c-0.272,-0.032 -0.547,-0.056 -0.825,-0.074" style="fill:none;stroke:#d5000d;stroke-width:1.8px;"/><path d="M179.169,87.365c-0.309,-0.02 -0.622,-0.032 -0.938,-0.035" style="fill:none;stroke:#d5000d;stroke-width:1.8px;"/><path d="M178.231,87.33c-0.064,-0.001 -0.128,-0.001 -0.192,-0.001c-0.242,0 -0.482,0.005 -0.72,0.015" style="fill:none;stroke:#d5000d;stroke-width:1.8px;"/><path d="M177.318,87.343c-0.356,0.015 -0.708,0.04 -1.055,0.077" style="fill:none;stroke:#d5000d;stroke-width:1.8px;"/><path d="M176.264,87.42c-0.473,0.05 -0.937,0.12 -1.391,0.21" style="fill:none;stroke:#d5000d;stroke-width:1.8px;"/><path d="M174.872,87.63c-0.814,0.162 -1.599,0.389 -2.355,0.68" style="fill:none;stroke:#d5000d;stroke-width:1.8px;"/><path d="M172.517,88.31c-0.66,0.255 -1.298,0.559 -1.913,0.913c-2.196,1.263 -4.053,2.964 -5.569,5.102c-1.516,2.138 -2.682,4.616 -3.499,7.434c-0.031,0.107 -0.061,0.215 -0.091,0.322" style="fill:none;stroke:#d5000d;stroke-width:1.8px;"/><path d="M161.446,102.083c-0.172,0.62 -0.325,1.247 -0.457,1.881" style="fill:none;stroke:#d5000d;stroke-width:1.8px;"/><path d="M160.988,103.963c-0.036,0.172 -0.071,0.344 -0.104,0.517" style="fill:none;stroke:#d5000d;stroke-width:1.8px;"/><path d="M222.881,64.355l1.846,0l0,4.43" style="fill:none;stroke:#d5000d;stroke-width:1.8px;"/><path d="M224.727,68.784l0,5.638" style="fill:none;stroke:#d5000d;stroke-width:1.8px;"/><path d="M224.727,74.423l-0,6.376l10.496,0l0,7.347l-4.87,0" style="fill:none;stroke:#d5000d;stroke-width:1.8px;"/><path d="M230.353,88.145l-5.626,0l0,9.537" style="fill:none;stroke:#d5000d;stroke-width:1.8px;"/><path d="M224.727,97.682l0,17.931" style="fill:none;stroke:#d5000d;stroke-width:1.8px;"/><path d="M224.727,115.612l0,6.368" style="fill:none;stroke:#d5000d;stroke-width:1.8px;"/><path d="M224.727,121.98l0,3.018" style="fill:none;stroke:#d5000d;stroke-width:1.8px;"/><path d="M224.727,124.998l0,1.672" style="fill:none;stroke:#d5000d;stroke-width:1.8px;"/><path d="M224.727,126.669l0,0.368c0,0.378 0.014,0.738 0.043,1.081" style="fill:none;stroke:#d5000d;stroke-width:1.8px;"/><path d="M224.77,128.119c0.004,0.043 0.007,0.086 0.011,0.128" style="fill:none;stroke:#d5000d;stroke-width:1.8px;"/><path d="M224.782,128.247c0.073,0.767 0.22,1.442 0.441,2.027c0.005,0.013 0.01,0.026 0.015,0.039" style="fill:none;stroke:#d5000d;stroke-width:1.8px;"/><path d="M225.237,130.313c0.329,0.856 0.771,1.543 1.326,2.06c0.545,0.507 1.19,0.869 1.935,1.086" style="fill:none;stroke:#d5000d;stroke-width:1.8px;"/><path d="M228.499,133.459c0.026,0.007 0.051,0.015 0.077,0.022c0.777,0.214 1.613,0.321 2.507,0.321c0.33,0 0.661,-0.009 0.993,-0.027" style="fill:none;stroke:#d5000d;stroke-width:1.8px;"/><path d="M232.076,133.774c0.801,-0.044 1.607,-0.142 2.418,-0.293c1.147,-0.214 2.148,-0.418 3.003,-0.612l0,6.081" style="fill:none;stroke:#d5000d;stroke-width:1.8px;"/><path d="M237.497,138.95l0,0.916c-1.005,0.309 -2.309,0.628 -3.91,0.957" style="fill:none;stroke:#d5000d;stroke-width:1.8px;"/><path d="M233.587,140.823c-0.009,0.002 -0.017,0.004 -0.026,0.005c-1.613,0.33 -3.275,0.496 -4.985,0.496c-0.307,0 -0.614,-0.009 -0.921,-0.026" style="fill:none;stroke:#d5000d;stroke-width:1.8px;"/><path d="M227.654,141.297c-1.174,-0.067 -2.354,-0.262 -3.54,-0.586c-1.497,-0.408 -2.838,-1.059 -4.023,-1.953c-0.184,-0.139 -0.362,-0.283 -0.535,-0.435" style="fill:none;stroke:#d5000d;stroke-width:1.8px;"/><path d="M219.556,138.323c-0.943,-0.824 -1.727,-1.836 -2.351,-3.035c-0.739,-1.419 -1.108,-3.158 -1.108,-5.219l0,-2.99" style="fill:none;stroke:#d5000d;stroke-width:1.8px;"/><path d="M216.097,127.08l0,-2.591" style="fill:none;stroke:#d5000d;stroke-width:1.8px;"/><path d="M216.097,124.489l0,-1.492" style="fill:none;stroke:#d5000d;stroke-width:1.8px;"/><path d="M216.097,122.997l-0,-1.563" style="fill:none;stroke:#d5000d;stroke-width:1.8px;"/><path d="M216.097,121.434l0,-2.4" style="fill:none;stroke:#d5000d;stroke-width:1.8px;"/><path d="M216.097,119.034l0,-6.299" style="fill:none;stroke:#d5000d;stroke-width:1.8px;"/><path d="M216.097,112.735l0,-17.072" style="fill:none;stroke:#d5000d;stroke-width:1.8px;"/><path d="M216.097,95.663l-0,-6.867" style="fill:none;stroke:#d5000d;stroke-width:1.8px;"/><path d="M216.097,88.796l0,-0.651l-1.069,-0" style="fill:none;stroke:#d5000d;stroke-width:1.8px;"/><path d="M215.029,88.145l-8.028,0l0,-1.803" style="fill:none;stroke:#d5000d;stroke-width:1.8px;"/><path d="M207.001,86.342l-0,-5.193" style="fill:none;stroke:#d5000d;stroke-width:1.8px;"/><path d="M207.001,81.149l0,-0.35l1.926,0" style="fill:none;stroke:#d5000d;stroke-width:1.8px;"/><path d="M208.927,80.798l7.17,0l0,-0.361" style="fill:none;stroke:#d5000d;stroke-width:1.8px;"/><path d="M216.097,80.437l0,-5.465" style="fill:none;stroke:#d5000d;stroke-width:1.8px;"/><path d="M216.097,74.972l0,-4.201" style="fill:none;stroke:#d5000d;stroke-width:1.8px;"/><path d="M216.097,70.772l0,-3.815" style="fill:none;stroke:#d5000d;stroke-width:1.8px;"/><path d="M216.097,66.957l-0,-2.602l6.784,0" style="fill:none;stroke:#d5000d;stroke-width:1.8px;"/><path d="M244.535,61.143l0,-2.736l8.63,0l0,3.537" style="fill:none;stroke:#d5000d;stroke-width:1.8px;"/><path d="M253.165,61.945l-0,10.974" style="fill:none;stroke:#d5000d;stroke-width:1.8px;"/><path d="M253.165,72.918l0,14.677" style="fill:none;stroke:#d5000d;stroke-width:1.8px;"/><path d="M253.165,87.596l0,1.366c1.205,-1.788 2.527,-3.275 3.965,-4.461c1.438,-1.186 2.964,-2.138 4.577,-2.857c1.613,-0.719 3.314,-1.234 5.102,-1.545c1.212,-0.211 2.442,-0.35 3.69,-0.418" style="fill:none;stroke:#d5000d;stroke-width:1.8px;"/><path d="M270.499,79.68c0.593,-0.032 1.19,-0.048 1.791,-0.048c2.799,0 5.364,0.447 7.697,1.341c0.499,0.191 0.983,0.397 1.452,0.619" style="fill:none;stroke:#d5000d;stroke-width:1.8px;"/><path d="M281.439,81.592c1.726,0.814 3.254,1.832 4.583,3.055c1.573,1.447 2.818,3.145 3.735,5.096" style="fill:none;stroke:#d5000d;stroke-width:1.8px;"/><path d="M289.757,89.743c0.069,0.146 0.136,0.294 0.201,0.443c0.933,2.138 1.399,4.451 1.399,6.939l0,43.032l-8.63,0l-0,-40.886" style="fill:none;stroke:#d5000d;stroke-width:1.8px;"/><path d="M282.728,99.271l0,-0.63c0,-2.021 -0.34,-3.751 -1.02,-5.19c-0.68,-1.438 -1.594,-2.614 -2.741,-3.528c-0.788,-0.628 -1.659,-1.137 -2.613,-1.526" style="fill:none;stroke:#d5000d;stroke-width:1.8px;"/><path d="M276.353,88.398c-0.434,-0.177 -0.884,-0.329 -1.352,-0.457c-1.497,-0.408 -3.061,-0.612 -4.694,-0.612c-1.785,0 -3.577,0.326 -5.377,0.977" style="fill:none;stroke:#d5000d;stroke-width:1.8px;"/><path d="M264.931,88.306c-0.239,0.086 -0.477,0.178 -0.716,0.276c-2.041,0.836 -3.878,1.992 -5.51,3.469c-1.633,1.477 -2.964,3.207 -3.994,5.19c-1.03,1.983 -1.545,4.121 -1.545,6.414l0,1.838" style="fill:none;stroke:#d5000d;stroke-width:1.8px;"/><path d="M253.165,105.494l0,19.56" style="fill:none;stroke:#d5000d;stroke-width:1.8px;"/><path d="M253.165,125.054l-0,7.805" style="fill:none;stroke:#d5000d;stroke-width:1.8px;"/><path d="M253.165,132.859l0,7.298l-8.63,0l-0,-7.435" style="fill:none;stroke:#d5000d;stroke-width:1.8px;"/><path d="M244.535,132.723l0,-4.28" style="fill:none;stroke:#d5000d;stroke-width:1.8px;"/><path d="M244.535,128.442l0,-7.288" style="fill:none;stroke:#d5000d;stroke-width:1.8px;"/><path d="M244.535,121.155l-0,-22.257" style="fill:none;stroke:#d5000d;stroke-width:1.8px;"/><path d="M244.535,98.898l0,-29.278" style="fill:none;stroke:#d5000d;stroke-width:1.8px;"/><path d="M244.535,69.619l-0,-8.476" style="fill:none;stroke:#d5000d;stroke-width:1.8px;"/><path d="M323.119,129.428l16.443,-48.63l9.038,0l-25.073,72.246c-0.816,2.294 -1.769,4.247 -2.857,5.86c-1.088,1.613 -2.225,2.915 -3.411,3.907c-1.186,0.991 -2.41,1.71 -3.674,2.157c-1.263,0.447 -2.478,0.671 -3.644,0.671c-1.011,0 -2.021,-0.068 -3.032,-0.204c-1.011,-0.136 -2.08,-0.418 -3.207,-0.845l0,-7.522c0.544,0.233 1.302,0.476 2.274,0.729c0.972,0.253 1.924,0.379 2.857,0.379c1.011,0 1.934,-0.36 2.77,-1.079c0.836,-0.719 1.642,-1.788 2.42,-3.207c0.777,-1.419 1.565,-3.207 2.362,-5.364c0.797,-2.157 1.662,-4.694 2.595,-7.609l-21.866,-60.117l9.446,0l16.56,48.63Z" style="fill:none;stroke:#d5000d;stroke-width:1.8px;"/></g><g id="A-flat-vector-graphic-illustration-of-vibrant-butterfly-wings--featuring-a-clean--minimalist-design-with-bold-outlines-and-a-simple--modern-vector-art-style--presented-in-a-symmetrical-composition." serif:id="A flat vector graphic illustration of vibrant butterfly wings, featuring a clean, minimalist design with bold outlines and a simple, modern vector art style, presented in a symmetrical composition."></g></svg>