<?xml version="1.0" encoding="UTF-8" standalone="no"?>
<!DOCTYPE svg PUBLIC "-//W3C//DTD SVG 1.1//EN" "http://www.w3.org/Graphics/SVG/1.1/DTD/svg11.dtd">
<svg width="100%" height="100%" viewBox="0 0 945 945" version="1.1" xmlns="http://www.w3.org/2000/svg" xmlns:xlink="http://www.w3.org/1999/xlink" xml:space="preserve" xmlns:serif="http://www.serif.com/" style="fill-rule:evenodd;clip-rule:evenodd;stroke-linejoin:round;stroke-miterlimit:2;">
    <g id="Artboard1" transform="matrix(0.234637,0,0,0.777041,-19.709481,-312.370493)">
        <rect x="84" y="402" width="4027" height="1216" style="fill:none;"/>
        <g transform="matrix(2.040808,0.15208,-0.638288,0.780997,-1808.587507,-49.428937)">
            <g transform="matrix(2.155462,0,0,1.700767,-566.700379,492.202279)">
                <path d="M963.637,59.759C843.827,59.759 934.019,164.259 943.468,218.102C952.026,266.239 941.518,338.624 1084.149,326.857C1035.298,345.756 963.96,379.441 1032.779,489.267C1088.405,578.054 1191.835,481.21 1235.693,407.756C1240.151,415.244 1219.721,415.244 1224.178,407.756C1268.037,481.21 1371.645,578.054 1427.092,489.267C1495.912,379.263 1424.574,345.756 1375.723,326.857C1518.354,338.624 1508.024,266.239 1516.404,218.102C1526.388,164.259 1616.613,59.759 1496.625,59.759C1343.475,59.759 1262.165,186.5 1230.251,252.645C1226.507,239.63 1233.755,239.63 1230.011,252.645C1198.097,186.5 1116.786,59.759 963.637,59.759Z" style="fill:none;fill-rule:nonzero;stroke:rgb(255,92,0);stroke-width:5.41px;"/>
            </g>
            <g transform="matrix(2.490969,-0,0,1.965499,-979.433451,414.8286)">
                <path d="M963.637,59.759C843.827,59.759 934.019,164.259 943.468,218.102C952.026,266.239 941.518,338.624 1084.149,326.857C1035.298,345.756 963.96,379.441 1032.779,489.267C1088.405,578.054 1191.835,481.21 1235.693,407.756C1240.151,415.244 1219.721,415.244 1224.178,407.756C1268.037,481.21 1371.645,578.054 1427.092,489.267C1495.912,379.263 1424.574,345.756 1375.723,326.857C1518.354,338.624 1508.024,266.239 1516.404,218.102C1526.388,164.259 1616.613,59.759 1496.625,59.759C1343.475,59.759 1262.165,186.5 1230.251,252.645C1226.507,239.63 1233.755,239.63 1230.011,252.645C1198.097,186.5 1116.786,59.759 963.637,59.759Z" style="fill:none;fill-rule:nonzero;stroke:rgb(255,63,0);stroke-width:5.41px;"/>
            </g>
            <g transform="matrix(2.914767,0,-0,2.299896,-1500.780488,317.093426)">
                <path d="M963.637,59.759C843.827,59.759 934.019,164.259 943.468,218.102C952.026,266.239 941.518,338.624 1084.149,326.857C1035.298,345.756 963.96,379.441 1032.779,489.267C1088.405,578.054 1191.835,481.21 1235.693,407.756C1240.151,415.244 1219.721,415.244 1224.178,407.756C1268.037,481.21 1371.645,578.054 1427.092,489.267C1495.912,379.263 1424.574,345.756 1375.723,326.857C1518.354,338.624 1508.024,266.239 1516.404,218.102C1526.388,164.259 1616.613,59.759 1496.625,59.759C1343.475,59.759 1262.165,186.5 1230.251,252.645C1226.507,239.63 1233.755,239.63 1230.011,252.645C1198.097,186.5 1116.786,59.759 963.637,59.759Z" style="fill:none;fill-rule:nonzero;stroke:rgb(213,52,0);stroke-width:5.41px;"/>
            </g>
            <g transform="matrix(1.801418,0,0,1.421409,-131.162781,573.851046)">
                <path d="M963.637,59.759C843.827,59.759 934.019,164.259 943.468,218.102C952.026,266.239 941.518,338.624 1084.149,326.857C1035.298,345.756 963.96,379.441 1032.779,489.267C1088.405,578.054 1191.835,481.21 1235.693,407.756C1240.151,415.244 1219.721,415.244 1224.178,407.756C1268.037,481.21 1371.645,578.054 1427.092,489.267C1495.912,379.263 1424.574,345.756 1375.723,326.857C1518.354,338.624 1508.024,266.239 1516.404,218.102C1526.388,164.259 1616.613,59.759 1496.625,59.759C1343.475,59.759 1262.165,186.5 1230.251,252.645C1226.507,239.63 1233.755,239.63 1230.011,252.645C1198.097,186.5 1116.786,59.759 963.637,59.759Z" style="fill:none;fill-rule:nonzero;stroke:rgb(255,119,43);stroke-width:8.09px;"/>
            </g>
            <g transform="matrix(1.494295,0,0,1.179073,246.652966,644.678892)">
                <path d="M963.637,59.759C843.827,59.759 934.019,164.259 943.468,218.102C952.026,266.239 941.518,338.624 1084.149,326.857C1035.298,345.756 963.96,379.441 1032.779,489.267C1088.405,578.054 1191.835,481.21 1235.693,407.756C1240.151,415.244 1219.721,415.244 1224.178,407.756C1268.037,481.21 1371.645,578.054 1427.092,489.267C1495.912,379.263 1424.574,345.756 1375.723,326.857C1518.354,338.624 1508.024,266.239 1516.404,218.102C1526.388,164.259 1616.613,59.759 1496.625,59.759C1343.475,59.759 1262.165,186.5 1230.251,252.645C1226.507,239.63 1233.755,239.63 1230.011,252.645C1198.097,186.5 1116.786,59.759 963.637,59.759Z" style="fill:none;fill-rule:nonzero;stroke:rgb(255,146,85);stroke-width:9.76px;"/>
            </g>
            <g transform="matrix(1.195704,0,0,0.94347,613.973832,713.539298)">
                <path d="M963.637,59.759C843.827,59.759 934.019,164.259 943.468,218.102C952.026,266.239 941.518,338.624 1084.149,326.857C1035.298,345.756 963.96,379.441 1032.779,489.267C1088.405,578.054 1191.835,481.21 1235.693,407.756C1240.151,415.244 1219.721,415.244 1224.178,407.756C1268.037,481.21 1371.645,578.054 1427.092,489.267C1495.912,379.263 1424.574,345.756 1375.723,326.857C1518.354,338.624 1508.024,266.239 1516.404,218.102C1526.388,164.259 1616.613,59.759 1496.625,59.759C1343.475,59.759 1262.165,186.5 1230.251,252.645C1226.507,239.63 1233.755,239.63 1230.011,252.645C1198.097,186.5 1116.786,59.759 963.637,59.759Z" style="fill:none;fill-rule:nonzero;stroke:rgb(255,173,128);stroke-width:12.19px;"/>
            </g>
            <g transform="matrix(0.901378,0,0,0.711232,976.047257,781.415983)">
                <path d="M963.637,59.759C843.827,59.759 934.019,164.259 943.468,218.102C952.026,266.239 941.518,338.624 1084.149,326.857C1035.298,345.756 963.96,379.441 1032.779,489.267C1088.405,578.054 1191.835,481.21 1235.693,407.756C1240.151,415.244 1219.721,415.244 1224.178,407.756C1268.037,481.21 1371.645,578.054 1427.092,489.267C1495.912,379.263 1424.574,345.756 1375.723,326.857C1518.354,338.624 1508.024,266.239 1516.404,218.102C1526.388,164.259 1616.613,59.759 1496.625,59.759C1343.475,59.759 1262.165,186.5 1230.251,252.645C1226.507,239.63 1233.755,239.63 1230.011,252.645C1198.097,186.5 1116.786,59.759 963.637,59.759Z" style="fill:none;fill-rule:nonzero;stroke:rgb(255,201,170);stroke-width:16.18px;"/>
            </g>
            <g transform="matrix(0.611317,0,0,0.48236,1332.873241,848.308949)">
                <path d="M963.637,59.759C843.827,59.759 934.019,164.259 943.468,218.102C952.026,266.239 941.518,338.624 1084.149,326.857C1035.298,345.756 963.96,379.441 1032.779,489.267C1088.405,578.054 1191.835,481.21 1235.693,407.756C1240.151,415.244 1219.721,415.244 1224.178,407.756C1268.037,481.21 1371.645,578.054 1427.092,489.267C1495.912,379.263 1424.574,345.756 1375.723,326.857C1518.354,338.624 1508.024,266.239 1516.404,218.102C1526.388,164.259 1616.613,59.759 1496.625,59.759C1343.475,59.759 1262.165,186.5 1230.251,252.645C1226.507,239.63 1233.755,239.63 1230.011,252.645C1198.097,186.5 1116.786,59.759 963.637,59.759Z" style="fill:none;fill-rule:nonzero;stroke:rgb(255,228,213);stroke-width:23.85px;"/>
            </g>
        </g>
        <g id="A-flat-vector-graphic-illustration-of-vibrant-butterfly-wings--featuring-a-clean--minimalist-design-with-bold-outlines-and-a-simple--modern-vector-art-style--presented-in-a-symmetrical-composition." serif:id="A flat vector graphic illustration of vibrant butterfly wings, featuring a clean, minimalist design with bold outlines and a simple, modern vector art style, presented in a symmetrical composition.">
        </g>
    </g>
</svg>
